<?xml version="1.0" standalone="no"?>
<!DOCTYPE svg PUBLIC "-//W3C//DTD SVG 20010904//EN"
 "http://www.w3.org/TR/2001/REC-SVG-20010904/DTD/svg10.dtd">
<svg version="1.0" xmlns="http://www.w3.org/2000/svg"
 width="80.000000pt" height="80.000000pt" viewBox="0 0 80.000000 80.000000"
 preserveAspectRatio="xMidYMid meet">

<g transform="translate(0.000000,80.000000) scale(0.100000,-0.100000)"
fill="#000000" stroke="none">
<path d="M355 766 c-52 -22 -59 -39 -29 -67 15 -13 35 -41 44 -63 16 -35 17
-42 3 -74 -9 -22 -13 -53 -10 -79 l5 -43 -32 5 c-18 4 -51 0 -78 -9 -56 -20
-87 -11 -139 41 l-37 35 -26 -38 c-35 -51 -35 -102 0 -143 l26 -31 28 30 c42
45 74 54 142 40 31 -7 69 -9 83 -6 l27 7 -7 -49 c-6 -44 4 -130 19 -172 4 -10
-8 -23 -35 -40 l-40 -25 30 -27 c44 -39 99 -39 143 2 21 19 28 30 18 30 -8 0
-27 12 -43 25 -26 23 -27 26 -16 70 6 24 10 76 7 114 l-4 70 28 -6 c15 -3 50
0 78 7 63 15 91 8 139 -35 36 -33 39 -34 53 -17 51 58 48 136 -6 181 -12 10
-18 8 -31 -13 -9 -14 -36 -35 -60 -46 -42 -20 -46 -21 -92 -5 -28 10 -61 14
-79 10 l-32 -6 5 41 c3 23 0 59 -7 80 -17 50 -7 85 36 128 39 39 35 54 -23 79
-39 16 -50 16 -88 -1z"/>
<path d="M506 640 c-30 -36 -42 -88 -29 -127 9 -26 14 -28 61 -28 58 1 94 17
113 51 12 23 9 28 -41 79 -30 30 -60 55 -66 55 -7 0 -24 -14 -38 -30z"/>
<path d="M475 282 c-8 -52 13 -113 47 -132 27 -15 28 -14 83 40 30 30 55 60
55 66 0 7 -14 24 -31 38 -25 21 -41 26 -89 26 l-58 0 -7 -38z"/>
</g>
</svg>
